<svg width="562.4px" height="143.84000549316406px" xmlns="http://www.w3.org/2000/svg" viewBox="-31.19999999999999 3.0799972534179716 562.4 143.84000549316406" style="background: none;" preserveAspectRatio="xMidYMid"><defs><linearGradient id="editing-shiny-gradient" x1="0.04322727117869957" x2="0.9567727288213004" y1="0.2966316784620999" y2="0.7033683215379001" gradientUnits="objectBoundingBox"><stop offset="0.0" stop-color="#389798"></stop><stop offset="0.5" stop-color="#459448"></stop><stop offset="1.0" stop-color="#f19d3b"></stop></linearGradient><linearGradient id="editing-shiny-gradient2" x1="0" x2="0" y1="0" y2="1"><stop offset="0.2" stop-color="#fff" stop-opacity="0.8"></stop><stop offset="0.8" stop-color="#fff" stop-opacity="0"></stop></linearGradient><filter id="editing-shiny2" x="-100%" y="-100%" width="300%" height="300%"><feMorphology operator="erode" radius="2"></feMorphology></filter><filter id="editing-shiny" x="-100%" y="-100%" width="300%" height="300%"><feFlood flood-color="#fff" result="flood"></feFlood><feConvolveMatrix in="SourceGraphic" result="conv" order="8,8" divisor="1" kernelMatrix="0 0 0 0 0 0 0 0 0 0 0 1 1 0 0 0 0 0 0 1 1 0 0 0 0 0 1 0 0 1 0 0 0 0 1 0 0 1 0 0 0 1 0 0 0 0 1 0 0 1 1 0 0 1 1 0 0 0 0 1 1 0 0 0 "></feConvolveMatrix><feOffset dx="0" dy="4" in="conv" result="offset"></feOffset><feComposite operator="in" in="flood" in2="offset" result="comp"></feComposite><feGaussianBlur in="offset" stdDeviation="3" result="shadow"></feGaussianBlur><feColorMatrix in="shadow" type="matrix" values="0.7 0 0 0 0  0 0.7 0 0 0  0 0 0.7 0 0  0 0 0 0.3 0" result="dark-shadow"></feColorMatrix><feOffset dx="0" dy="4" in="dark-shadow" result="offset-shadow"></feOffset><feOffset dx="0" dy="2" in="conv" result="offset-2"></feOffset><feComposite operator="out" in="offset" in2="offset-2" result="edge-diff"></feComposite><feGaussianBlur in="edge-diff" stdDeviation="1" result="edge-blur"></feGaussianBlur><feColorMatrix in="edge-blur" result="edge-shadow" type="matrix" values="0 0 0 0 0  0 0 0 0 0  0 0 0 0 0  0 0 0 0.5 0"></feColorMatrix><feComposite operator="in" in="edge-shadow" in2="offset" result="edge-shadow-in"></feComposite><feOffset dx="0" dy="1" in="edge-shadow-in" result="edge-shadow-final"></feOffset><feMerge result="out"><feMergeNode in="offset-shadow"></feMergeNode><feMergeNode in="comp"></feMergeNode><feMergeNode in="edge-shadow-final"></feMergeNode><feMergeNode in="SourceGraphic"></feMergeNode></feMerge></filter></defs><g filter="url(#editing-shiny)"><g transform="translate(50.435020446777344, 104.25)"><path d="M31.75-45.24L31.75-45.24L31.75-45.24Q32.84-47.11 32.84-49.14L32.84-49.14L32.84-49.14Q32.84-52.73 30.65-52.73L30.65-52.73L30.65-52.73Q27.30-52.73 25.90-45.86L25.90-45.86L24.73-39.78L31.82-39.78L31.36-36.27L24.02-36.27L17.00 0L1.25 1.56L8.74-36.27L3.20-36.27L3.90-39.78L9.36-39.78L11.00-45.94L11.00-45.94Q12.40-51.64 18.41-54.29L18.41-54.29L18.41-54.29Q22.78-56.16 30.11-56.16L30.11-56.16L30.11-56.16Q37.44-56.16 40.72-54.29L40.72-54.29L40.72-54.29Q43.99-52.42 43.99-49.92L43.99-49.92L43.99-49.92Q43.99-47.42 42.04-45.86L42.04-45.86L42.04-45.86Q40.09-44.30 37.91-44.30L37.91-44.30L37.91-44.30Q33.62-44.30 31.75-45.24ZM56.55-4.29L56.55-4.29L56.55-4.29Q54.13 1.56 46.41 1.56L46.41 1.56L46.41 1.56Q42.43 1.56 39.94-1.17L39.94-1.17L39.94-1.17Q37.83-3.59 37.83-6.01L37.83-6.01L37.83-6.01Q37.83-12.32 40.72-24.65L40.72-24.65L43.60-39.78L59.44-41.34L54.68-16.69L54.68-16.69Q53.35-10.92 53.35-8.89L53.35-8.89L53.35-8.89Q53.35-4.45 56.55-4.29ZM45.01-50.62L45.01-50.62L45.01-50.62Q45.01-53.66 47.54-55.30L47.54-55.30L47.54-55.30Q50.08-56.94 53.74-56.94L53.74-56.94L53.74-56.94Q57.41-56.94 59.63-55.30L59.63-55.30L59.63-55.30Q61.85-53.66 61.85-50.62L61.85-50.62L61.85-50.62Q61.85-47.58 59.40-46.02L59.40-46.02L59.40-46.02Q56.94-44.46 53.27-44.46L53.27-44.46L53.27-44.46Q49.61-44.46 47.31-46.02L47.31-46.02L47.31-46.02Q45.01-47.58 45.01-50.62ZM96.17 1.56L96.17 1.56L96.17 1.56Q86.74 1.56 86.74-5.77L86.74-5.77L86.74-5.77Q86.81-7.80 87.44-11.23L87.44-11.23L88.84-18.41L88.84-18.41Q90.95-28.55 90.95-30.81L90.95-30.81L90.95-30.81Q90.95-35.33 88.30-35.33L88.30-35.33L88.30-35.33Q83.85-35.33 81.51-23.71L81.51-23.71L76.91 0L61.23 1.56L69.34-39.86L82.13-41.34L80.89-33.70L80.89-33.70Q84.55-41.34 95.78-41.34L95.78-41.34L95.78-41.34Q101.24-41.34 103.55-39.04L103.55-39.04L103.55-39.04Q105.85-36.74 105.85-31.59L105.85-31.59L105.85-31.59Q105.85-26.75 103.35-15.44L103.35-15.44L103.35-15.44Q102.18-10.37 102.18-8.46L102.18-8.46L102.18-8.46Q102.18-6.55 103.23-5.46L103.23-5.46L103.23-5.46Q104.29-4.37 105.85-4.21L105.85-4.21L105.85-4.21Q105.07-1.56 102.38 0L102.38 0L102.38 0Q99.68 1.56 96.17 1.56ZM136.66-41.34L136.66-41.34L136.66-41.34Q139.46-41.34 141.65-40.72L141.65-40.72L141.65-40.72Q141.73-41.03 141.88-41.89L141.88-41.89L142.27-44.30L142.27-44.30Q142.58-45.86 143.05-48.44L143.05-48.44L144.30-54.60L159.82-56.16L151.16-10.92L151.16-10.92Q151.09-10.45 151.09-9.67L151.09-9.67L151.09-8.42L151.09-8.42Q151.09-6.71 151.94-5.42L151.94-5.42L151.94-5.42Q152.80-4.13 154.21-4.13L154.21-4.13L154.21-4.13Q152.65-0.47 147.89 1.09L147.89 1.09L147.89 1.09Q146.25 1.56 143.95 1.56L143.95 1.56L143.95 1.56Q141.65 1.56 139.54 0.35L139.54 0.35L139.54 0.35Q137.44-0.86 136.81-2.89L136.81-2.89L136.81-2.89Q135.56-0.86 133.07 0.35L133.07 0.35L133.07 0.35Q130.57 1.56 126.94 1.56L126.94 1.56L126.94 1.56Q123.32 1.56 120.31 0.62L120.31 0.62L120.31 0.62Q117.31-0.31 115.44-2.34L115.44-2.34L115.44-2.34Q112.01-6.32 112.01-15.37L112.01-15.37L112.01-15.37Q112.01-27.07 118.87-34.16L118.87-34.16L118.87-34.16Q125.74-41.34 136.66-41.34ZM136.11-36.66L136.11-36.66L136.11-36.66Q133.22-36.66 131.66-33.54L131.66-33.54L131.66-33.54Q130.10-30.42 128.50-22.70L128.50-22.70L128.50-22.70Q126.91-14.98 126.91-8.03L126.91-8.03L126.91-8.03Q126.91-3.28 129.71-3.28L129.71-3.28L129.71-3.28Q132.21-3.28 133.96-5.77L133.96-5.77L133.96-5.77Q135.72-8.27 136.42-12.40L136.42-12.40L140.63-35.26L140.63-35.26Q139.00-36.66 136.11-36.66ZM183.53 0L174.56 0L188.68-51.48L204.98-51.48L208.57-22.07L223.08-51.48L236.73-51.48L238.13-12.95L238.13-12.95Q238.45-5.30 242.19-2.96L242.19-2.96L242.19-2.96Q241.33-1.40 238.84 0.08L238.84 0.08L238.84 0.08Q236.34 1.56 233.03 1.56L233.03 1.56L233.03 1.56Q229.71 1.56 227.76 0.62L227.76 0.62L227.76 0.62Q225.81-0.31 224.72-1.87L224.72-1.87L224.72-1.87Q222.77-4.68 222.77-10.06L222.77-10.06L222.77-34.16L207.40 0L197.73 0L192.27-35.02L183.53 0ZM262.55 1.56L262.55 1.56L262.55 1.56Q245.39 1.56 245.39-14.59L245.39-14.59L245.39-14.59Q245.39-26.05 251.71-33.46L251.71-33.46L251.71-33.46Q258.41-41.34 270.04-41.34L270.04-41.34L270.04-41.34Q278.46-41.34 282.75-37.44L282.75-37.44L282.75-37.44Q287.04-33.54 287.04-25.35L287.04-25.35L287.04-25.35Q287.04-12.87 280.33-5.62L280.33-5.62L280.33-5.62Q273.78 1.56 262.55 1.56ZM264.58-32.37L264.58-32.37L264.58-32.37Q263.64-30.26 262.90-27.11L262.90-27.11L262.90-27.11Q262.16-23.95 261.22-18.95L261.22-18.95L261.22-18.95Q260.29-13.96 260.29-7.80L260.29-7.80L260.29-7.80Q260.29-5.77 260.95-4.45L260.95-4.45L260.95-4.45Q261.61-3.12 263.41-3.12L263.41-3.12L263.41-3.12Q265.20-3.12 266.33-3.98L266.33-3.98L266.33-3.98Q267.46-4.84 268.32-6.86L268.32-6.86L268.32-6.86Q269.88-10.45 271.13-17.12L271.13-17.12L271.13-17.12Q272.38-23.79 272.49-26.68L272.49-26.68L272.49-26.68Q272.61-29.56 272.61-31.71L272.61-31.71L272.61-31.71Q272.61-33.85 271.99-35.26L271.99-35.26L271.99-35.26Q271.36-36.66 269.61-36.66L269.61-36.66L269.61-36.66Q267.85-36.66 266.68-35.57L266.68-35.57L266.68-35.57Q265.51-34.48 264.58-32.37ZM319.96-38.45L319.96-38.45L319.96-38.45Q322.53-41.34 326.98-41.34L326.98-41.34L326.98-41.34Q329.71-41.34 331.81-39.86L331.81-39.86L331.81-39.86Q333.92-38.38 333.92-35.61L333.92-35.61L333.92-35.61Q333.92-32.84 333.06-29.87L333.06-29.87L333.06-29.87Q332.20-26.91 330.88-23.87L330.88-23.87L330.88-23.87Q328.22-17.94 324.56-13.03L324.56-13.03L324.56-13.03Q319.41-5.93 314.46-2.18L314.46-2.18L314.46-2.18Q309.50 1.56 304.12 1.56L304.12 1.56L304.12 1.56Q299.75 1.56 297.10 0.55L297.10 0.55L297.10 0.55Q296.63-15.83 296.05-21.68L296.05-21.68L296.05-21.68Q295.46-27.53 295.00-30.73L295.00-30.73L295.00-30.73Q294.22-36.97 291.88-38.45L291.88-38.45L291.88-38.45Q293.67-40.01 295.43-40.68L295.43-40.68L295.43-40.68Q297.18-41.34 300.81-41.34L300.81-41.34L300.81-41.34Q304.43-41.34 307.01-38.49L307.01-38.49L307.01-38.49Q309.58-35.65 310.09-30.61L310.09-30.61L310.09-30.61Q310.60-25.58 310.60-19.50L310.60-19.50L310.60-19.50Q310.60-13.42 310.13-6.08L310.13-6.08L310.13-6.08Q312.55-7.80 315.12-13.03L315.12-13.03L315.12-13.03Q318.63-20.28 319.88-29.02L319.88-29.02L319.88-29.02Q320.27-31.67 320.27-34.48L320.27-34.48L320.27-34.48Q320.27-37.28 319.96-38.45ZM354.74-4.29L354.74-4.29L354.74-4.29Q352.33 1.56 344.60 1.56L344.60 1.56L344.60 1.56Q340.63 1.56 338.13-1.17L338.13-1.17L338.13-1.17Q336.02-3.59 336.02-6.01L336.02-6.01L336.02-6.01Q336.02-12.32 338.91-24.65L338.91-24.65L341.80-39.78L357.63-41.34L352.87-16.69L352.87-16.69Q351.55-10.92 351.55-8.89L351.55-8.89L351.55-8.89Q351.55-4.45 354.74-4.29ZM343.20-50.62L343.20-50.62L343.20-50.62Q343.20-53.66 345.74-55.30L345.74-55.30L345.74-55.30Q348.27-56.94 351.94-56.94L351.94-56.94L351.94-56.94Q355.60-56.94 357.83-55.30L357.83-55.30L357.83-55.30Q360.05-53.66 360.05-50.62L360.05-50.62L360.05-50.62Q360.05-47.58 357.59-46.02L357.59-46.02L357.59-46.02Q355.13-44.46 351.47-44.46L351.47-44.46L351.47-44.46Q347.80-44.46 345.50-46.02L345.50-46.02L345.50-46.02Q343.20-47.58 343.20-50.62ZM376.39 0.78L376.39 0.78L376.39 0.78Q372.68 0 370.77-0.35L370.77-0.35L370.77-0.35Q368.86-0.70 366.64-0.70L366.64-0.70L366.64-0.70Q364.42-0.70 362.23 0.08L362.23 0.08L362.23 0.08Q361.06-0.62 360.32-2.03L360.32-2.03L360.32-2.03Q359.58-3.43 359.58-5.62L359.58-5.62L359.58-5.62Q359.58-10.22 364.26-13.73L364.26-13.73L384.07-28.00L384.07-28.00Q378.53-29.56 373.50-29.56L373.50-29.56L373.50-29.56Q368.47-29.56 366.68-26.13L366.68-26.13L366.68-26.13Q364.03-29.25 364.03-34.16L364.03-34.16L364.03-34.16Q364.03-37.44 366.41-39.59L366.41-39.59L366.41-39.59Q368.78-41.73 373.78-41.73L373.78-41.73L373.78-41.73Q376.58-41.73 379.12-41.38L379.12-41.38L379.12-41.38Q381.65-41.03 383.92-40.72L383.92-40.72L388.13-40.09L388.13-40.09Q390.16-39.78 392.22-39.78L392.22-39.78L392.22-39.78Q394.29-39.78 395.85-40.64L395.85-40.64L395.85-40.64Q397.88-38.77 397.88-36.19L397.88-36.19L397.88-36.19Q397.88-32.14 392.89-27.92L392.89-27.92L373.15-13.18L373.15-13.18Q379.24-11.39 382.36-11.39L382.36-11.39L382.36-11.39Q388.91-11.39 391.72-14.51L391.72-14.51L391.72-14.51Q393.90-12.01 393.90-7.68L393.90-7.68L393.90-7.68Q393.90-3.35 391.09-0.90L391.09-0.90L391.09-0.90Q388.28 1.56 383.21 1.56L383.21 1.56L383.21 1.56Q380.09 1.56 376.39 0.78Z" fill="url(#editing-shiny-gradient)"></path></g></g><g filter="url(#editing-shiny2)"><g transform="translate(50.43498229980469, 104.2499942779541)"><path d="M31.75-45.24L31.75-45.24L31.75-45.24Q32.84-47.11 32.84-49.14L32.84-49.14L32.84-49.14Q32.84-52.73 30.65-52.73L30.65-52.73L30.65-52.73Q27.30-52.73 25.90-45.86L25.90-45.86L24.73-39.78L31.82-39.78L31.36-36.27L24.02-36.27L17.00 0L1.25 1.56L8.74-36.27L3.20-36.27L3.90-39.78L9.36-39.78L11.00-45.94L11.00-45.94Q12.40-51.64 18.41-54.29L18.41-54.29L18.41-54.29Q22.78-56.16 30.11-56.16L30.11-56.16L30.11-56.16Q37.44-56.16 40.72-54.29L40.72-54.29L40.72-54.29Q43.99-52.42 43.99-49.92L43.99-49.92L43.99-49.92Q43.99-47.42 42.04-45.86L42.04-45.86L42.04-45.86Q40.09-44.30 37.91-44.30L37.91-44.30L37.91-44.30Q33.62-44.30 31.75-45.24ZM56.55-4.29L56.55-4.29L56.55-4.29Q54.13 1.56 46.41 1.56L46.41 1.56L46.41 1.56Q42.43 1.56 39.94-1.17L39.94-1.17L39.94-1.17Q37.83-3.59 37.83-6.01L37.83-6.01L37.83-6.01Q37.83-12.32 40.72-24.65L40.72-24.65L43.60-39.78L59.44-41.34L54.68-16.69L54.68-16.69Q53.35-10.92 53.35-8.89L53.35-8.89L53.35-8.89Q53.35-4.45 56.55-4.29ZM45.01-50.62L45.01-50.62L45.01-50.62Q45.01-53.66 47.54-55.30L47.54-55.30L47.54-55.30Q50.08-56.94 53.74-56.94L53.74-56.94L53.74-56.94Q57.41-56.94 59.63-55.30L59.63-55.30L59.63-55.30Q61.85-53.66 61.85-50.62L61.85-50.62L61.85-50.62Q61.85-47.58 59.40-46.02L59.40-46.02L59.40-46.02Q56.94-44.46 53.27-44.46L53.27-44.46L53.27-44.46Q49.61-44.46 47.31-46.02L47.31-46.02L47.31-46.02Q45.01-47.58 45.01-50.62ZM96.17 1.56L96.17 1.56L96.17 1.56Q86.74 1.56 86.74-5.77L86.74-5.77L86.74-5.77Q86.81-7.80 87.44-11.23L87.44-11.23L88.84-18.41L88.84-18.41Q90.95-28.55 90.95-30.81L90.95-30.81L90.95-30.81Q90.95-35.33 88.30-35.33L88.30-35.33L88.30-35.33Q83.85-35.33 81.51-23.71L81.51-23.71L76.91 0L61.23 1.56L69.34-39.86L82.13-41.34L80.89-33.70L80.89-33.70Q84.55-41.34 95.78-41.34L95.78-41.34L95.78-41.34Q101.24-41.34 103.55-39.04L103.55-39.04L103.55-39.04Q105.85-36.74 105.85-31.59L105.85-31.59L105.85-31.59Q105.85-26.75 103.35-15.44L103.35-15.44L103.35-15.44Q102.18-10.37 102.18-8.46L102.18-8.46L102.18-8.46Q102.18-6.55 103.23-5.46L103.23-5.46L103.23-5.46Q104.29-4.37 105.85-4.21L105.85-4.21L105.85-4.21Q105.07-1.56 102.38 0L102.38 0L102.38 0Q99.68 1.56 96.17 1.56ZM136.66-41.34L136.66-41.34L136.66-41.34Q139.46-41.34 141.65-40.72L141.65-40.72L141.65-40.72Q141.73-41.03 141.88-41.89L141.88-41.89L142.27-44.30L142.27-44.30Q142.58-45.86 143.05-48.44L143.05-48.44L144.30-54.60L159.82-56.16L151.16-10.92L151.16-10.92Q151.09-10.45 151.09-9.67L151.09-9.67L151.09-8.42L151.09-8.42Q151.09-6.71 151.94-5.42L151.94-5.42L151.94-5.42Q152.80-4.13 154.21-4.13L154.21-4.13L154.21-4.13Q152.65-0.47 147.89 1.09L147.89 1.09L147.89 1.09Q146.25 1.56 143.95 1.56L143.95 1.56L143.95 1.56Q141.65 1.56 139.54 0.35L139.54 0.35L139.54 0.35Q137.44-0.86 136.81-2.89L136.81-2.89L136.81-2.89Q135.56-0.86 133.07 0.35L133.07 0.35L133.07 0.35Q130.57 1.56 126.94 1.56L126.94 1.56L126.94 1.56Q123.32 1.56 120.31 0.62L120.31 0.62L120.31 0.62Q117.31-0.31 115.44-2.34L115.44-2.34L115.44-2.34Q112.01-6.32 112.01-15.37L112.01-15.37L112.01-15.37Q112.01-27.07 118.87-34.16L118.87-34.16L118.87-34.16Q125.74-41.34 136.66-41.34ZM136.11-36.66L136.11-36.66L136.11-36.66Q133.22-36.66 131.66-33.54L131.66-33.54L131.66-33.54Q130.10-30.42 128.50-22.70L128.50-22.70L128.50-22.70Q126.91-14.98 126.91-8.03L126.91-8.03L126.91-8.03Q126.91-3.28 129.71-3.28L129.71-3.28L129.71-3.28Q132.21-3.28 133.96-5.77L133.96-5.77L133.96-5.77Q135.72-8.27 136.42-12.40L136.42-12.40L140.63-35.26L140.63-35.26Q139.00-36.66 136.11-36.66ZM183.53 0L174.56 0L188.68-51.48L204.98-51.48L208.57-22.07L223.08-51.48L236.73-51.48L238.13-12.95L238.13-12.95Q238.45-5.30 242.19-2.96L242.19-2.96L242.19-2.96Q241.33-1.40 238.84 0.08L238.84 0.08L238.84 0.08Q236.34 1.56 233.03 1.56L233.03 1.56L233.03 1.56Q229.71 1.56 227.76 0.62L227.76 0.62L227.76 0.62Q225.81-0.31 224.72-1.87L224.72-1.87L224.72-1.87Q222.77-4.68 222.77-10.06L222.77-10.06L222.77-34.16L207.40 0L197.73 0L192.27-35.02L183.53 0ZM262.55 1.56L262.55 1.56L262.55 1.56Q245.39 1.56 245.39-14.59L245.39-14.59L245.39-14.59Q245.39-26.05 251.71-33.46L251.71-33.46L251.71-33.46Q258.41-41.34 270.04-41.34L270.04-41.34L270.04-41.34Q278.46-41.34 282.75-37.44L282.75-37.44L282.75-37.44Q287.04-33.54 287.04-25.35L287.04-25.35L287.04-25.35Q287.04-12.87 280.33-5.62L280.33-5.62L280.33-5.62Q273.78 1.56 262.55 1.56ZM264.58-32.37L264.58-32.37L264.58-32.37Q263.64-30.26 262.90-27.11L262.90-27.11L262.90-27.11Q262.16-23.95 261.22-18.95L261.22-18.95L261.22-18.95Q260.29-13.96 260.29-7.80L260.29-7.80L260.29-7.80Q260.29-5.77 260.95-4.45L260.95-4.45L260.95-4.45Q261.61-3.12 263.41-3.12L263.41-3.12L263.41-3.12Q265.20-3.12 266.33-3.98L266.33-3.98L266.33-3.98Q267.46-4.84 268.32-6.86L268.32-6.86L268.32-6.86Q269.88-10.45 271.13-17.12L271.13-17.12L271.13-17.12Q272.38-23.79 272.49-26.68L272.49-26.68L272.49-26.68Q272.61-29.56 272.61-31.71L272.61-31.71L272.61-31.71Q272.61-33.85 271.99-35.26L271.99-35.26L271.99-35.26Q271.36-36.66 269.61-36.66L269.61-36.66L269.61-36.66Q267.85-36.66 266.68-35.57L266.68-35.57L266.68-35.57Q265.51-34.48 264.58-32.37ZM319.96-38.45L319.96-38.45L319.96-38.45Q322.53-41.34 326.98-41.34L326.98-41.34L326.98-41.34Q329.71-41.34 331.81-39.86L331.81-39.86L331.81-39.86Q333.92-38.38 333.92-35.61L333.92-35.61L333.92-35.61Q333.92-32.84 333.06-29.87L333.06-29.87L333.06-29.87Q332.20-26.91 330.88-23.87L330.88-23.87L330.88-23.87Q328.22-17.94 324.56-13.03L324.56-13.03L324.56-13.03Q319.41-5.93 314.46-2.18L314.46-2.18L314.46-2.18Q309.50 1.56 304.12 1.56L304.12 1.56L304.12 1.56Q299.75 1.56 297.10 0.55L297.10 0.55L297.10 0.55Q296.63-15.83 296.05-21.68L296.05-21.68L296.05-21.68Q295.46-27.53 295.00-30.73L295.00-30.73L295.00-30.73Q294.22-36.97 291.88-38.45L291.88-38.45L291.88-38.45Q293.67-40.01 295.43-40.68L295.43-40.68L295.43-40.68Q297.18-41.34 300.81-41.34L300.81-41.34L300.81-41.34Q304.43-41.34 307.01-38.49L307.01-38.49L307.01-38.49Q309.58-35.65 310.09-30.61L310.09-30.61L310.09-30.61Q310.60-25.58 310.60-19.50L310.60-19.50L310.60-19.50Q310.60-13.42 310.13-6.08L310.13-6.08L310.13-6.08Q312.55-7.80 315.12-13.03L315.12-13.03L315.12-13.03Q318.63-20.28 319.88-29.02L319.88-29.02L319.88-29.02Q320.27-31.67 320.27-34.48L320.27-34.48L320.27-34.48Q320.27-37.28 319.96-38.45ZM354.74-4.29L354.74-4.29L354.74-4.29Q352.33 1.56 344.60 1.56L344.60 1.56L344.60 1.56Q340.63 1.56 338.13-1.17L338.13-1.17L338.13-1.17Q336.02-3.59 336.02-6.01L336.02-6.01L336.02-6.01Q336.02-12.32 338.91-24.65L338.91-24.65L341.80-39.78L357.63-41.34L352.87-16.69L352.87-16.69Q351.55-10.92 351.55-8.89L351.55-8.89L351.55-8.89Q351.55-4.45 354.74-4.29ZM343.20-50.62L343.20-50.62L343.20-50.62Q343.20-53.66 345.74-55.30L345.74-55.30L345.74-55.30Q348.27-56.94 351.94-56.94L351.94-56.94L351.94-56.94Q355.60-56.94 357.83-55.30L357.83-55.30L357.83-55.30Q360.05-53.66 360.05-50.62L360.05-50.62L360.05-50.62Q360.05-47.58 357.59-46.02L357.59-46.02L357.59-46.02Q355.13-44.46 351.47-44.46L351.47-44.46L351.47-44.46Q347.80-44.46 345.50-46.02L345.50-46.02L345.50-46.02Q343.20-47.58 343.20-50.62ZM376.39 0.78L376.39 0.78L376.39 0.78Q372.68 0 370.77-0.35L370.77-0.35L370.77-0.35Q368.86-0.70 366.64-0.70L366.64-0.70L366.64-0.70Q364.42-0.70 362.23 0.08L362.23 0.08L362.23 0.08Q361.06-0.62 360.32-2.03L360.32-2.03L360.32-2.03Q359.58-3.43 359.58-5.62L359.58-5.62L359.58-5.62Q359.58-10.22 364.26-13.73L364.26-13.73L384.07-28.00L384.07-28.00Q378.53-29.56 373.50-29.56L373.50-29.56L373.50-29.56Q368.47-29.56 366.68-26.13L366.68-26.13L366.68-26.13Q364.03-29.25 364.03-34.16L364.03-34.16L364.03-34.16Q364.03-37.44 366.41-39.59L366.41-39.59L366.41-39.59Q368.78-41.73 373.78-41.73L373.78-41.73L373.78-41.73Q376.58-41.73 379.12-41.38L379.12-41.38L379.12-41.38Q381.65-41.03 383.92-40.72L383.92-40.72L388.13-40.09L388.13-40.09Q390.16-39.78 392.22-39.78L392.22-39.78L392.22-39.78Q394.29-39.78 395.85-40.64L395.85-40.64L395.85-40.64Q397.88-38.77 397.88-36.19L397.88-36.19L397.88-36.19Q397.88-32.14 392.89-27.92L392.89-27.92L373.15-13.18L373.15-13.18Q379.24-11.39 382.36-11.39L382.36-11.39L382.36-11.39Q388.91-11.39 391.72-14.51L391.72-14.51L391.72-14.51Q393.90-12.01 393.90-7.68L393.90-7.68L393.90-7.68Q393.90-3.35 391.09-0.90L391.09-0.90L391.09-0.90Q388.28 1.56 383.21 1.56L383.21 1.56L383.21 1.56Q380.09 1.56 376.39 0.78Z" fill="url(#editing-shiny-gradient2)"></path></g></g><style>text {
  font-size: 64px;
  font-family: Arial Black;
  dominant-baseline: central;
  text-anchor: middle;
}</style></svg>